<svg id="Layer_1" enable-background="new 0 0 512 512" height="512" viewBox="0 0 512 512" width="512" xmlns="http://www.w3.org/2000/svg"><g><g><path d="m437.02 74.98c-48.353-48.351-112.64-74.98-181.02-74.98l-21.333 256 21.333 256c68.38 0 132.667-26.629 181.02-74.98 48.351-48.352 74.98-112.64 74.98-181.02s-26.629-132.668-74.98-181.02z" fill="#fdae02"/><path d="m74.98 74.98c-48.351 48.352-74.98 112.64-74.98 181.02s26.629 132.668 74.98 181.02c48.352 48.351 112.64 74.98 181.02 74.98v-512c-68.38 0-132.668 26.629-181.02 74.98z" fill="#fdcb02"/></g><g><path d="m391.259 120.741c-36.129-36.129-84.165-56.026-135.259-56.026l-21.333 191.285 21.333 191.285c51.094 0 99.13-19.897 135.259-56.026s56.026-84.165 56.026-135.259-19.897-99.13-56.026-135.259z" fill="#f90"/><path d="m120.741 120.741c-36.129 36.129-56.026 84.165-56.026 135.259s19.897 99.13 56.026 135.259 84.165 56.026 135.259 56.026v-382.57c-51.094 0-99.13 19.897-135.259 56.026z" fill="#fdae02"/></g><g><path d="m271 239.183v32.15h30v-32.15c0-28.391-19.03-52.406-45-60l-4 15.817 4 16.81c9.012 5.787 15 15.89 15 27.373z" fill="#fdcb02"/><path d="m153.666 176.667v158.666h30v-128.666h54.817c6.447 0 12.456 1.894 17.516 5.143v-32.627c-5.562-1.627-11.436-2.515-17.516-2.515h-84.817z" fill="#fde023"/></g><g><path d="m328.333 176.667v128.666h-54.817c-6.447 0-12.456-1.894-17.516-5.143l-4 16.388 4 16.24c5.562 1.626 11.436 2.515 17.516 2.515h84.817v-158.666z" fill="#fdcb02"/><path d="m241 272.817v-32.15h-30v32.15c0 28.391 19.03 52.406 45 60v-32.627c-9.012-5.787-15-15.89-15-27.373z" fill="#fde023"/></g></g></svg>